<?xml version="1.0" standalone="no"?>
<!DOCTYPE svg PUBLIC "-//W3C//DTD SVG 20010904//EN"
 "http://www.w3.org/TR/2001/REC-SVG-20010904/DTD/svg10.dtd">
<svg version="1.0" xmlns="http://www.w3.org/2000/svg"
 width="256.000000pt" height="256.000000pt" viewBox="0 0 256.000000 256.000000"
 preserveAspectRatio="xMidYMid meet">
<metadata>
Created by potrace 1.14, written by Peter Selinger 2001-2017
</metadata>
<g transform="translate(0.000000,256.000000) scale(0.100000,-0.100000)"
fill="#000000" stroke="none">
<path d="M1155 2389 c-68 -14 -78 -17 -139 -38 -294 -103 -490 -369 -522 -707
-4 -38 -8 -76 -10 -84 -1 -8 -3 -20 -3 -27 -1 -8 -26 -12 -83 -12 -171 1 -196
-1 -212 -17 -37 -36 -22 -62 119 -203 l135 -136 -5 -50 c-3 -28 -7 -68 -10
-90 -3 -22 -8 -62 -11 -90 -3 -27 -7 -66 -9 -85 -2 -19 -7 -62 -10 -95 -3 -33
-7 -73 -10 -90 -3 -16 -7 -57 -10 -90 -4 -33 -8 -73 -11 -90 -3 -16 -7 -65 -9
-109 -3 -63 0 -86 15 -115 33 -65 73 -90 149 -96 56 -4 112 18 192 74 147 101
254 102 384 1 69 -53 118 -72 190 -73 70 -1 114 17 195 78 69 52 109 68 174
70 66 3 133 -23 202 -76 128 -98 265 -98 330 1 19 28 26 53 27 87 1 45 -8 162
-18 228 -2 17 -7 57 -10 90 -7 63 -12 117 -20 175 -2 19 -7 64 -10 100 -3 36
-8 76 -10 90 -3 14 -7 54 -10 90 l-6 65 136 136 c142 144 155 167 116 203 -15
14 -41 17 -155 17 -96 1 -136 4 -137 12 0 7 -2 21 -4 32 -3 11 -7 45 -11 75
-19 169 -60 295 -131 401 -148 221 -375 347 -638 354 -60 2 -128 -1 -150 -6z"/>
</g>
</svg>
